<svg xmlns="http://www.w3.org/2000/svg" xmlns:xlink="http://www.w3.org/1999/xlink" id="Layer_1" width="100%" x="0" y="0" enable-background="new 0 0 1958 431" version="1.1" viewBox="0 0 1958 431" xml:space="preserve"><path fill="#FFF" stroke="none" d="M1403.000000,432.000000 C935.333313,432.000000 468.166656,432.000000 1.000000,432.000000 C1.000000,288.333344 1.000000,144.666672 1.000000,1.000000 C653.666687,1.000000 1306.333374,1.000000 1959.000000,1.000000 C1959.000000,144.666672 1959.000000,288.333344 1959.000000,432.000000 C1773.833374,432.000000 1588.666626,432.000000 1403.000000,432.000000 M421.716583,106.005295 C422.035187,106.218048 422.353821,106.430801 422.672424,106.643547 C422.487579,106.061142 422.302734,105.478737 421.849274,104.278900 C389.176025,75.453941 351.144012,63.456333 307.873749,68.176529 C305.600952,68.424454 302.969238,69.568764 301.366852,71.162598 C262.973480,109.351166 224.685883,147.646179 186.454132,185.996658 C185.169998,187.284805 184.181778,189.266174 183.868790,191.065826 C176.524048,233.299393 195.016693,275.151367 231.184723,297.710785 C253.214386,311.451569 277.202576,315.734558 303.827728,311.640625 C301.719513,310.158112 300.446899,309.230652 299.142365,308.350494 C225.259323,258.503052 231.123566,146.835297 310.108673,105.531639 C346.912598,86.285782 384.295593,87.053009 421.716583,106.005295 M751.156982,274.711914 C778.659546,224.643188 806.162048,174.574463 833.944092,123.996819 C824.270264,123.996819 815.431091,124.290604 806.625793,123.871056 C802.318359,123.665810 800.184875,125.084290 798.238831,128.838287 C779.571350,164.849228 760.710327,200.759842 741.898560,236.695969 C739.840088,240.628265 737.742981,244.540329 735.125244,249.477646 C728.233032,206.691360 721.523682,165.039932 714.751282,122.996857 C707.307373,122.996857 699.994263,123.199562 692.700684,122.908913 C689.203369,122.769531 687.515869,123.990601 685.894104,127.066101 C665.421326,165.888779 644.780884,204.623062 624.176697,243.376389 C623.334717,244.960175 622.429016,246.510132 620.872009,249.293045 C614.321960,206.737244 607.966187,165.443756 601.564453,123.851494 C590.171509,123.851494 579.227417,123.851494 567.788147,123.851494 C577.918030,180.903320 588.026428,237.833878 598.182983,295.036072 C605.940247,295.036072 613.425598,294.865509 620.897034,295.115143 C624.151917,295.223907 625.824646,294.230957 627.419922,291.274017 C647.786682,253.523193 668.329224,215.867172 688.834045,178.190872 C689.596375,176.789993 690.430359,175.428101 691.783875,173.094864 C698.952820,214.400070 705.932434,254.614334 712.947998,295.036041 C721.476624,295.036041 729.631775,295.146637 737.777527,294.919373 C739.031128,294.884430 740.693481,293.563446 741.394775,292.379822 C744.699158,286.803009 747.734619,281.066925 751.156982,274.711914 M921.710388,235.090149 C922.767151,236.503403 923.996155,237.819839 924.853577,239.345123 C932.021729,252.097092 939.108521,264.894775 946.248169,277.662811 C949.249939,283.031006 951.100220,290.499542 955.694519,293.120087 C960.500305,295.861267 967.973450,293.964417 974.281372,294.022308 C980.128601,294.075989 985.976746,294.033752 992.460327,294.033752 C980.152222,272.233307 968.339478,251.310150 956.307251,229.998352 C958.851318,229.177994 960.883240,228.575668 962.879028,227.871078 C985.508606,219.882401 1001.570679,205.461624 1007.555542,181.520935 C1014.468750,153.866272 1002.577759,133.743607 974.946167,126.764145 C968.080261,125.029884 960.822876,124.203423 953.731567,124.118523 C928.077942,123.811394 902.418396,123.994156 876.761047,124.007050 C875.296753,124.007790 873.832581,124.142593 872.322388,124.217270 C861.834473,180.867004 851.399902,237.229019 840.925476,293.806122 C851.552612,293.806122 861.812012,293.806122 872.362976,293.806122 C876.029846,274.125580 879.665955,254.610275 883.312622,235.038361 C896.201965,235.038361 908.522644,235.038361 921.710388,235.090149 M434.248779,264.749023 C444.030212,254.968063 453.911774,245.283554 463.508362,235.324463 C465.419220,233.341446 467.018188,230.432877 467.449432,227.740997 C477.069641,167.689819 434.963989,113.143951 374.445709,107.486015 C365.707184,106.669037 356.802002,107.634521 347.973969,107.775146 C397.964539,141.299484 414.582611,199.046249 397.672302,248.550446 C389.357513,272.891724 374.667694,292.870178 353.292969,307.246094 C313.349426,334.110779 271.423126,335.021179 228.283707,314.904236 C229.696915,316.499908 231.075317,317.646057 232.449234,318.797546 C264.527618,345.683258 301.446472,356.602570 342.946106,352.018646 C345.620209,351.723297 348.643860,350.154938 350.575226,348.240723 C378.392639,320.670593 406.050507,292.939423 434.248779,264.749023 M1122.374878,129.817184 C1087.227783,184.380859 1052.080688,238.944550 1016.594299,294.034851 C1026.735840,294.034851 1035.899170,293.902802 1045.054688,294.112061 C1047.954102,294.178375 1049.494995,293.149414 1050.969116,290.768341 C1058.147949,279.172913 1065.451172,267.652649 1072.887451,256.220856 C1073.807129,254.807083 1075.777588,253.179764 1077.271484,253.169693 C1104.415527,252.986420 1131.561157,253.036011 1159.050171,253.036011 C1162.606934,266.763306 1166.130249,280.362000 1169.620239,293.831757 C1180.907227,293.831757 1191.691406,293.831757 1202.798218,293.831757 C1187.142334,236.728790 1171.561523,179.899338 1155.960815,122.997620 C1148.377808,122.997620 1141.188232,123.423012 1134.076660,122.861450 C1128.503906,122.421394 1124.876221,124.103737 1122.374878,129.817184 M1385.266113,210.753952 C1393.503174,201.085220 1397.887939,189.747467 1399.743530,177.316727 C1403.145264,154.528015 1392.217651,135.662735 1370.305664,128.536804 C1361.895752,125.801804 1352.740356,124.428246 1343.878296,124.195763 C1321.228271,123.601578 1298.552246,123.993851 1275.886597,124.006165 C1274.416016,124.006958 1272.945557,124.131699 1271.320923,124.205818 C1260.845825,180.804581 1250.410278,237.189041 1239.927612,293.828064 C1250.496704,293.828064 1260.765015,293.828064 1271.368164,293.828064 C1274.758545,275.605103 1278.124634,257.513092 1281.562500,239.034836 C1283.447021,239.034836 1285.075073,239.036530 1286.703125,239.034576 C1298.035767,239.020950 1309.384644,239.390244 1320.697876,238.913849 C1345.506714,237.869141 1367.796265,230.598221 1385.266113,210.753952 M1563.769531,140.976151 C1535.823364,118.778366 1504.841309,115.564972 1472.078857,127.409058 C1456.861816,132.910263 1444.935425,143.413574 1438.708008,158.639816 C1427.629272,185.728012 1434.811890,205.405075 1462.550537,214.865891 C1469.457397,217.221603 1476.598633,218.881180 1483.583862,221.018478 C1492.464355,223.735672 1501.596436,225.918671 1510.075684,229.589523 C1521.945801,234.728394 1524.273926,245.722992 1516.544800,256.269470 C1512.326294,262.025604 1506.402466,265.421234 1499.606934,266.997009 C1477.414185,272.143188 1457.416138,267.394928 1439.687256,253.105911 C1437.251221,251.142517 1434.898804,249.075317 1432.379028,246.947418 C1424.757568,254.098862 1417.261963,261.132324 1409.773682,268.158844 C1425.219849,285.051483 1448.529175,295.143951 1473.439209,295.946411 C1493.691162,296.598816 1512.948608,293.377075 1529.713379,281.024567 C1542.985229,271.245758 1550.628418,258.013367 1552.814331,241.704086 C1554.979126,225.551514 1548.540894,212.536438 1533.115479,205.517181 C1522.311646,200.600952 1510.544922,197.814590 1499.243164,193.973892 C1490.936768,191.151062 1482.402466,188.769150 1474.494873,185.068588 C1467.122314,181.618408 1465.288086,176.450500 1466.881226,168.491394 C1468.919678,158.307098 1476.211060,152.914841 1485.364258,150.145905 C1500.666138,145.516983 1515.368652,148.319794 1529.285278,155.544510 C1534.680176,158.345306 1539.698364,161.872025 1545.120239,165.211029 C1551.449951,158.362457 1557.806641,151.560974 1564.020996,144.632004 C1564.586548,144.001419 1564.238892,142.551849 1563.769531,140.976151 M1610.501953,123.996765 C1604.908569,123.996765 1599.315186,123.996765 1593.165771,123.996765 C1594.054199,125.917168 1594.629761,127.260750 1595.285645,128.563797 C1611.053955,159.888412 1626.889038,191.179733 1642.497803,222.583496 C1643.779053,225.161148 1644.286255,228.611359 1643.859253,231.462296 C1642.356689,241.491837 1640.277100,251.434509 1638.439819,261.414429 C1636.464355,272.144104 1634.515381,282.878632 1632.517578,293.815521 C1643.357056,293.815521 1653.623657,293.815521 1663.910156,293.815521 C1664.219116,292.828217 1664.551758,292.052368 1664.701904,291.242737 C1668.463379,270.959045 1672.127686,250.656754 1676.047241,230.403793 C1676.551392,227.798370 1677.895142,225.038666 1679.638550,223.037766 C1702.188232,197.159851 1724.884033,171.409302 1747.535156,145.619904 C1753.639648,138.669632 1759.718994,131.697174 1766.455566,123.996765 C1759.898926,123.996765 1754.202515,124.685326 1748.734985,123.859695 C1735.575806,121.872581 1725.534424,125.733101 1718.807373,137.516281 C1717.752808,139.363434 1716.037598,140.833328 1714.628662,142.478256 C1698.600952,161.190109 1682.573242,179.901993 1666.128174,199.101196 C1665.196899,197.213730 1664.466797,195.771332 1663.768555,194.313644 C1653.142578,172.131683 1642.474487,149.969635 1631.956787,127.736351 C1630.650757,124.975540 1629.191528,123.710472 1625.994141,123.915482 C1621.180908,124.224113 1616.333252,123.996445 1610.501953,123.996765 z" opacity="1"/><path fill="#1F2C3A" stroke="none" d="M751.011475,275.049774 C747.734619,281.066925 744.699158,286.803009 741.394775,292.379822 C740.693481,293.563446 739.031128,294.884430 737.777527,294.919373 C729.631775,295.146637 721.476624,295.036041 712.947998,295.036041 C705.932434,254.614334 698.952820,214.400070 691.783875,173.094864 C690.430359,175.428101 689.596375,176.789993 688.834045,178.190872 C668.329224,215.867172 647.786682,253.523193 627.419922,291.274017 C625.824646,294.230957 624.151917,295.223907 620.897034,295.115143 C613.425598,294.865509 605.940247,295.036072 598.182983,295.036072 C588.026428,237.833878 577.918030,180.903320 567.788147,123.851494 C579.227417,123.851494 590.171509,123.851494 601.564453,123.851494 C607.966187,165.443756 614.321960,206.737244 620.872009,249.293045 C622.429016,246.510132 623.334717,244.960175 624.176697,243.376389 C644.780884,204.623062 665.421326,165.888779 685.894104,127.066101 C687.515869,123.990601 689.203369,122.769531 692.700684,122.908913 C699.994263,123.199562 707.307373,122.996857 714.751282,122.996857 C721.523682,165.039932 728.233032,206.691360 735.125244,249.477646 C737.742981,244.540329 739.840088,240.628265 741.898560,236.695969 C760.710327,200.759842 779.571350,164.849228 798.238831,128.838287 C800.184875,125.084290 802.318359,123.665810 806.625793,123.871056 C815.431091,124.290604 824.270264,123.996819 833.944092,123.996819 C806.162048,174.574463 778.659546,224.643188 751.011475,275.049774 z" opacity="1"/><path fill="#1E2C39" stroke="none" d="M921.276855,235.064255 C908.522644,235.038361 896.201965,235.038361 883.312622,235.038361 C879.665955,254.610275 876.029846,274.125580 872.362976,293.806122 C861.812012,293.806122 851.552612,293.806122 840.925476,293.806122 C851.399902,237.229019 861.834473,180.867004 872.322388,124.217270 C873.832581,124.142593 875.296753,124.007790 876.761047,124.007050 C902.418396,123.994156 928.077942,123.811394 953.731567,124.118523 C960.822876,124.203423 968.080261,125.029884 974.946167,126.764145 C1002.577759,133.743607 1014.468750,153.866272 1007.555542,181.520935 C1001.570679,205.461624 985.508606,219.882401 962.879028,227.871078 C960.883240,228.575668 958.851318,229.177994 956.307251,229.998352 C968.339478,251.310150 980.152222,272.233307 992.460327,294.033752 C985.976746,294.033752 980.128601,294.075989 974.281372,294.022308 C967.973450,293.964417 960.500305,295.861267 955.694519,293.120087 C951.100220,290.499542 949.249939,283.031006 946.248169,277.662811 C939.108521,264.894775 932.021729,252.097092 924.853577,239.345123 C923.996155,237.819839 922.767151,236.503403 921.276855,235.064255 M915.502319,151.032593 C910.037659,151.032593 904.572937,151.032593 898.821838,151.032593 C895.295532,170.109573 891.830078,188.856964 888.338013,207.748550 C905.845154,207.748550 923.000000,208.188995 940.118408,207.589371 C951.021973,207.207428 961.066040,203.229782 968.498047,194.779785 C975.875427,186.391998 978.998779,176.428970 975.328125,165.595581 C971.998230,155.767960 963.189453,152.553009 953.927734,151.909836 C941.492065,151.046188 928.980652,151.273575 915.502319,151.032593 z" opacity="1"/><path fill="#1E2C39" stroke="none" d="M433.997742,264.997986 C406.050507,292.939423 378.392639,320.670593 350.575226,348.240723 C348.643860,350.154938 345.620209,351.723297 342.946106,352.018646 C301.446472,356.602570 264.527618,345.683258 232.449234,318.797546 C231.075317,317.646057 229.696915,316.499908 228.283707,314.904236 C271.423126,335.021179 313.349426,334.110779 353.292969,307.246094 C374.667694,292.870178 389.357513,272.891724 397.672302,248.550446 C414.582611,199.046249 397.964539,141.299484 347.973969,107.775146 C356.802002,107.634521 365.707184,106.669037 374.445709,107.486015 C434.963989,113.143951 477.069641,167.689819 467.449432,227.740997 C467.018188,230.432877 465.419220,233.341446 463.508362,235.324463 C453.911774,245.283554 444.030212,254.968063 433.997742,264.997986 z" opacity="1"/><path fill="#F3682B" stroke="none" d="M421.393921,105.517601 C384.295593,87.053009 346.912598,86.285782 310.108673,105.531639 C231.123566,146.835297 225.259323,258.503052 299.142365,308.350494 C300.446899,309.230652 301.719513,310.158112 303.827728,311.640625 C277.202576,315.734558 253.214386,311.451569 231.184723,297.710785 C195.016693,275.151367 176.524048,233.299393 183.868790,191.065826 C184.181778,189.266174 185.169998,187.284805 186.454132,185.996658 C224.685883,147.646179 262.973480,109.351166 301.366852,71.162598 C302.969238,69.568764 305.600952,68.424454 307.873749,68.176529 C351.144012,63.456333 389.176025,75.453941 421.799194,104.738983 C421.749146,105.199059 421.393921,105.517601 421.393921,105.517601 z" opacity="1"/><path fill="#1E2C39" stroke="none" d="M1122.590088,129.519836 C1124.876221,124.103737 1128.503906,122.421394 1134.076660,122.861450 C1141.188232,123.423012 1148.377808,122.997620 1155.960815,122.997620 C1171.561523,179.899338 1187.142334,236.728790 1202.798218,293.831757 C1191.691406,293.831757 1180.907227,293.831757 1169.620239,293.831757 C1166.130249,280.362000 1162.606934,266.763306 1159.050171,253.036011 C1131.561157,253.036011 1104.415527,252.986420 1077.271484,253.169693 C1075.777588,253.179764 1073.807129,254.807083 1072.887451,256.220856 C1065.451172,267.652649 1058.147949,279.172913 1050.969116,290.768341 C1049.494995,293.149414 1047.954102,294.178375 1045.054688,294.112061 C1035.899170,293.902802 1026.735840,294.034851 1016.594299,294.034851 C1052.080688,238.944550 1087.227783,184.380859 1122.590088,129.519836 M1097.570068,216.070648 C1095.616943,219.209549 1093.663818,222.348434 1091.546387,225.751587 C1112.247070,225.751587 1132.142578,225.751587 1152.544800,225.751587 C1146.518555,203.306412 1140.589722,181.223373 1134.378662,158.089371 C1121.791382,177.918625 1109.876465,196.688736 1097.570068,216.070648 z" opacity="1"/><path fill="#1E2C39" stroke="none" d="M1385.052368,211.038177 C1367.796265,230.598221 1345.506714,237.869141 1320.697876,238.913849 C1309.384644,239.390244 1298.035767,239.020950 1286.703125,239.034576 C1285.075073,239.036530 1283.447021,239.034836 1281.562500,239.034836 C1278.124634,257.513092 1274.758545,275.605103 1271.368164,293.828064 C1260.765015,293.828064 1250.496704,293.828064 1239.927612,293.828064 C1250.410278,237.189041 1260.845825,180.804581 1271.320923,124.205818 C1272.945557,124.131699 1274.416016,124.006958 1275.886597,124.006165 C1298.552246,123.993851 1321.228271,123.601578 1343.878296,124.195763 C1352.740356,124.428246 1361.895752,125.801804 1370.305664,128.536804 C1392.217651,135.662735 1403.145264,154.528015 1399.743530,177.316727 C1397.887939,189.747467 1393.503174,201.085220 1385.052368,211.038177 M1367.137085,180.498749 C1369.685913,164.783401 1362.105347,153.716263 1345.435425,152.287338 C1329.786499,150.945923 1313.932251,151.999954 1297.637573,151.999954 C1294.060791,171.387695 1290.349365,191.506287 1286.594482,211.859604 C1300.813965,211.859604 1314.300293,212.387238 1327.729614,211.738098 C1348.795166,210.719849 1363.059204,199.295563 1367.137085,180.498749 z" opacity="1"/><path fill="#1F2C3A" stroke="none" d="M1564.042480,141.229370 C1564.238892,142.551849 1564.586548,144.001419 1564.020996,144.632004 C1557.806641,151.560974 1551.449951,158.362457 1545.120239,165.211029 C1539.698364,161.872025 1534.680176,158.345306 1529.285278,155.544510 C1515.368652,148.319794 1500.666138,145.516983 1485.364258,150.145905 C1476.211060,152.914841 1468.919678,158.307098 1466.881226,168.491394 C1465.288086,176.450500 1467.122314,181.618408 1474.494873,185.068588 C1482.402466,188.769150 1490.936768,191.151062 1499.243164,193.973892 C1510.544922,197.814590 1522.311646,200.600952 1533.115479,205.517181 C1548.540894,212.536438 1554.979126,225.551514 1552.814331,241.704086 C1550.628418,258.013367 1542.985229,271.245758 1529.713379,281.024567 C1512.948608,293.377075 1493.691162,296.598816 1473.439209,295.946411 C1448.529175,295.143951 1425.219849,285.051483 1409.773682,268.158844 C1417.261963,261.132324 1424.757568,254.098862 1432.379028,246.947418 C1434.898804,249.075317 1437.251221,251.142517 1439.687256,253.105911 C1457.416138,267.394928 1477.414185,272.143188 1499.606934,266.997009 C1506.402466,265.421234 1512.326294,262.025604 1516.544800,256.269470 C1524.273926,245.722992 1521.945801,234.728394 1510.075684,229.589523 C1501.596436,225.918671 1492.464355,223.735672 1483.583862,221.018478 C1476.598633,218.881180 1469.457397,217.221603 1462.550537,214.865891 C1434.811890,205.405075 1427.629272,185.728012 1438.708008,158.639816 C1444.935425,143.413574 1456.861816,132.910263 1472.078857,127.409058 C1504.841309,115.564972 1535.823364,118.778366 1564.042480,141.229370 z" opacity="1"/><path fill="#1F2C3A" stroke="none" d="M1611.001099,123.996765 C1616.333252,123.996445 1621.180908,124.224113 1625.994141,123.915482 C1629.191528,123.710472 1630.650757,124.975540 1631.956787,127.736351 C1642.474487,149.969635 1653.142578,172.131683 1663.768555,194.313644 C1664.466797,195.771332 1665.196899,197.213730 1666.128174,199.101196 C1682.573242,179.901993 1698.600952,161.190109 1714.628662,142.478256 C1716.037598,140.833328 1717.752808,139.363434 1718.807373,137.516281 C1725.534424,125.733101 1735.575806,121.872581 1748.734985,123.859695 C1754.202515,124.685326 1759.898926,123.996765 1766.455566,123.996765 C1759.718994,131.697174 1753.639648,138.669632 1747.535156,145.619904 C1724.884033,171.409302 1702.188232,197.159851 1679.638550,223.037766 C1677.895142,225.038666 1676.551392,227.798370 1676.047241,230.403793 C1672.127686,250.656754 1668.463379,270.959045 1664.701904,291.242737 C1664.551758,292.052368 1664.219116,292.828217 1663.910156,293.815521 C1653.623657,293.815521 1643.357056,293.815521 1632.517578,293.815521 C1634.515381,282.878632 1636.464355,272.144104 1638.439819,261.414429 C1640.277100,251.434509 1642.356689,241.491837 1643.859253,231.462296 C1644.286255,228.611359 1643.779053,225.161148 1642.497803,222.583496 C1626.889038,191.179733 1611.053955,159.888412 1595.285645,128.563797 C1594.629761,127.260750 1594.054199,125.917168 1593.165771,123.996765 C1599.315186,123.996765 1604.908569,123.996765 1611.001099,123.996765 z" opacity="1"/><path fill="#F3682B" stroke="none" d="M421.933533,105.047699 C422.302734,105.478737 422.487579,106.061142 422.672424,106.643547 C422.353821,106.430801 422.035187,106.218048 421.555237,105.761444 C421.393921,105.517601 421.749146,105.199059 421.933533,105.047699 z" opacity="1"/><path fill="#FEFEFE" stroke="none" d="M916.002014,151.032593 C928.980652,151.273575 941.492065,151.046188 953.927734,151.909836 C963.189453,152.553009 971.998230,155.767960 975.328125,165.595581 C978.998779,176.428970 975.875427,186.391998 968.498047,194.779785 C961.066040,203.229782 951.021973,207.207428 940.118408,207.589371 C923.000000,208.188995 905.845154,207.748550 888.338013,207.748550 C891.830078,188.856964 895.295532,170.109573 898.821838,151.032593 C904.572937,151.032593 910.037659,151.032593 916.002014,151.032593 z" opacity="1"/><path fill="#FDFDFD" stroke="none" d="M1097.765869,215.764740 C1109.876465,196.688736 1121.791382,177.918625 1134.378662,158.089371 C1140.589722,181.223373 1146.518555,203.306412 1152.544800,225.751587 C1132.142578,225.751587 1112.247070,225.751587 1091.546387,225.751587 C1093.663818,222.348434 1095.616943,219.209549 1097.765869,215.764740 z" opacity="1"/><path fill="#FEFEFE" stroke="none" d="M1367.089966,180.919067 C1363.059204,199.295563 1348.795166,210.719849 1327.729614,211.738098 C1314.300293,212.387238 1300.813965,211.859604 1286.594482,211.859604 C1290.349365,191.506287 1294.060791,171.387695 1297.637573,151.999954 C1313.932251,151.999954 1329.786499,150.945923 1345.435425,152.287338 C1362.105347,153.716263 1369.685913,164.783401 1367.089966,180.919067 z" opacity="1"/></svg>