<svg xmlns="http://www.w3.org/2000/svg" width="241.24" height="99.531" viewBox="0 0 241.24 99.531"><g id="svgGroup" fill="currentColor" fill-rule="evenodd" stroke="currentColor" stroke-linecap="round" stroke-width="1.512" font-size="12" style="stroke:currentColor;stroke-width:.4mm;fill:currentColor"><path d="M 83.193 0 L 83.193 99.531 L 59.336 99.531 L 59.336 57.969 L 23.994 57.969 L 23.994 99.531 L 0 99.531 L 0 0 L 23.994 0 L 23.994 39.512 L 59.336 39.512 L 59.336 0 L 83.193 0 Z M 160.098 39.512 L 160.098 57.354 L 122.363 57.354 L 122.363 81.074 L 166.934 81.074 L 166.934 99.531 L 98.369 99.531 L 98.369 0 L 167.07 0 L 167.07 18.525 L 122.363 18.525 L 122.363 39.512 L 160.098 39.512 Z M 195.234 25.566 L 205.625 45.938 L 216.357 25.566 L 240.283 25.566 L 220.801 61.592 L 241.24 99.531 L 217.178 99.531 L 205.557 77.656 L 194.141 99.531 L 169.941 99.531 L 190.449 61.592 L 171.035 25.566 L 195.234 25.566 Z"/></g></svg>