<?xml version="1.0" standalone="no"?>
<!DOCTYPE svg PUBLIC "-//W3C//DTD SVG 20010904//EN" "http://www.w3.org/TR/2001/REC-SVG-20010904/DTD/svg10.dtd">
<svg version="1.0" xmlns="http://www.w3.org/2000/svg" width="750.000000pt" height="750.000000pt"
    viewBox="0 0 750.000000 750.000000" preserveAspectRatio="xMidYMid meet">

    <g transform="translate(0.000000,750.000000) scale(0.100000,-0.100000)" fill="currentColor" stroke="none">
        <path d="M3782 7458 c-18 -18 -15 -29 15 -60 l27 -28 -32 -33 c-31 -32 -32
-34 -14 -50 10 -9 23 -17 28 -17 15 1 104 87 104 101 0 15 -89 99 -105 99 -6
0 -16 -5 -23 -12z" />
        <path d="M3969 7451 l-24 -19 21 -24 c36 -40 36 -46 2 -77 l-33 -30 22 -22 22
-22 60 48 60 49 -39 47 c-60 70 -64 72 -91 50z" />
        <path d="M4146 7432 c-16 -19 -16 -21 10 -52 l28 -32 -34 -28 c-34 -28 -36
-54 -5 -66 17 -7 125 63 125 80 0 15 -79 110 -94 114 -7 1 -20 -6 -30 -16z" />
        <path d="M4331 7411 l-24 -18 27 -35 27 -36 -37 -29 c-36 -29 -36 -29 -17 -52
l19 -23 56 36 c31 20 60 41 63 46 6 9 -64 112 -84 125 -4 2 -17 -5 -30 -14z" />
        <path d="M2985 7403 c-11 -3 -24 -9 -28 -13 -9 -8 30 -197 42 -204 4 -3 28 0
55 6 l48 10 -7 37 c-3 20 -13 66 -21 104 -17 72 -23 76 -89 60z" />
        <path d="M4565 7380 c-12 -19 -45 -194 -38 -201 5 -3 27 -11 51 -17 51 -12 49
-15 79 116 l19 84 -20 7 c-40 15 -85 20 -91 11z" />
        <path d="M2795 7356 c-50 -15 -52 -27 -21 -131 l24 -80 35 1 c59 2 70 10 64
47 -13 67 -45 171 -53 173 -5 1 -27 -3 -49 -10z" />
        <path d="M4777 7323 c-15 -26 -57 -187 -50 -193 4 -4 46 -19 93 -33 47 -14
138 -46 204 -72 65 -25 122 -43 126 -38 12 13 81 186 76 190 -18 18 -395 153
-427 153 -10 0 -20 -3 -22 -7z" />
        <path d="M2310 7189 c-148 -63 -320 -148 -320 -158 0 -19 81 -172 94 -177 7
-3 69 22 137 54 68 33 157 72 197 88 39 15 72 33 72 38 0 25 -69 196 -79 196
-3 0 -49 -19 -101 -41z" />
        <path d="M3540 7180 c-129 -10 -271 -28 -278 -35 -6 -6 19 -185 27 -189 3 -2
35 0 71 5 175 22 391 29 566 17 269 -17 247 -19 255 21 4 18 10 61 14 96 l6
62 -103 12 c-142 15 -431 21 -558 11z" />
        <path d="M3095 7123 c-171 -32 -442 -110 -585 -170 -47 -19 -107 -44 -135 -55
-67 -27 -231 -110 -330 -166 -153 -88 -355 -226 -355 -244 0 -14 103 -147 115
-147 6 -1 53 30 106 67 313 224 750 415 1147 500 52 11 96 23 99 26 9 9 -19
175 -31 184 -6 5 -20 7 -31 5z" />
        <path d="M5271 7041 c-22 -49 -41 -92 -41 -95 0 -7 76 -46 89 -46 10 0 70 110
91 166 8 21 5 26 -30 44 -22 11 -45 20 -53 20 -8 0 -32 -39 -56 -89z" />
        <path d="M4721 6948 c-16 -51 -27 -96 -23 -99 4 -4 45 -19 92 -34 213 -70 415
-164 682 -319 107 -62 413 -299 472 -365 11 -11 24 -21 30 -21 15 0 136 122
136 137 0 34 -336 297 -542 425 -116 72 -381 210 -458 238 -19 7 -53 21 -75
31 -42 19 -265 99 -277 99 -4 0 -20 -42 -37 -92z" />
        <path d="M5460 6954 c-25 -47 -46 -90 -48 -94 -2 -5 18 -21 43 -36 39 -22 49
-25 56 -13 29 45 89 160 89 171 0 11 -74 58 -90 58 -3 0 -25 -39 -50 -86z" />
        <path d="M5675 6908 c-30 -44 -65 -99 -80 -127 -14 -28 -14 -29 25 -55 22 -14
43 -26 48 -26 8 0 122 163 122 175 0 7 -78 55 -89 55 -6 0 -17 -10 -26 -22z" />
        <path d="M3660 6755 l0 -105 -34 0 -34 0 -7 100 -7 100 -50 0 -49 0 5 -52 c3
-29 7 -75 8 -103 l3 -50 -35 0 c-35 0 -35 0 -42 55 -4 30 -10 75 -14 99 l-6
43 -40 -6 c-23 -4 -44 -9 -48 -11 -3 -2 -1 -46 6 -96 7 -51 11 -96 9 -100 -8
-12 -55 -17 -62 -5 -4 6 -12 48 -19 94 -7 46 -15 86 -18 89 -10 10 -96 -8 -96
-20 1 -7 9 -52 19 -100 13 -63 15 -89 7 -92 -49 -14 -56 -13 -62 13 -26 105
-41 163 -46 168 -3 3 -24 0 -47 -7 -48 -14 -48 -19 -21 -109 24 -77 25 -110 6
-110 -8 0 -21 -3 -29 -6 -16 -6 -37 38 -57 124 -7 30 -18 56 -26 59 -17 6 -84
-16 -84 -27 0 -5 11 -44 25 -86 14 -42 25 -83 25 -91 0 -16 -50 -38 -60 -26
-4 4 -19 44 -34 88 -16 44 -31 83 -35 87 -8 10 -91 -21 -91 -34 0 -4 4 -16 10
-26 11 -20 60 -146 60 -154 0 -3 -13 -11 -29 -16 -36 -13 -37 -11 -74 78 -40
96 -39 94 -81 80 -48 -16 -52 -26 -29 -74 11 -23 30 -62 42 -88 l21 -48 -29
-15 c-35 -18 -35 -17 -86 85 -21 41 -39 76 -40 78 -4 5 -85 -37 -85 -44 0 -3
20 -44 45 -91 25 -47 44 -87 43 -88 -9 -8 -48 -25 -56 -25 -5 0 -28 36 -53 80
-24 44 -50 80 -57 80 -20 0 -72 -33 -72 -45 0 -6 20 -44 45 -84 25 -40 45 -77
45 -81 0 -9 -40 -40 -51 -40 -4 0 -29 36 -56 80 -26 44 -54 80 -61 80 -18 0
-72 -38 -72 -51 0 -5 23 -43 51 -84 51 -73 52 -76 34 -95 -10 -11 -23 -20 -30
-20 -7 0 -36 34 -65 75 -29 41 -58 75 -64 75 -7 0 -26 -12 -44 -27 l-32 -28
61 -78 c59 -75 61 -79 44 -97 -10 -11 -24 -20 -31 -20 -7 0 -39 32 -70 70 -31
39 -61 70 -66 70 -5 0 -25 -12 -44 -26 l-34 -26 53 -60 c82 -93 83 -95 62
-118 -10 -11 -23 -20 -29 -20 -6 0 -41 33 -77 73 l-67 72 -31 -29 c-17 -17
-31 -34 -31 -40 0 -6 30 -41 67 -78 l68 -68 -27 -26 -26 -26 -68 66 c-38 36
-74 66 -80 66 -5 0 -23 -14 -40 -31 l-29 -31 73 -65 c39 -36 72 -71 72 -77 0
-7 -9 -21 -20 -31 -19 -17 -21 -17 -66 21 -25 22 -61 51 -79 67 l-33 27 -26
-34 c-14 -19 -26 -38 -26 -43 0 -4 34 -35 74 -67 59 -47 73 -63 66 -76 -24
-44 -34 -42 -116 20 l-79 61 -28 -33 c-15 -18 -27 -37 -26 -43 0 -5 34 -34 75
-63 40 -29 74 -59 74 -66 0 -7 -9 -21 -20 -31 -18 -17 -22 -15 -99 39 l-80 56
-26 -34 c-14 -18 -25 -38 -25 -43 0 -6 36 -34 80 -62 44 -29 80 -56 80 -60 0
-5 -8 -19 -19 -32 l-18 -23 -74 46 c-41 25 -79 48 -86 52 -11 6 -53 -50 -53
-72 0 -6 36 -32 80 -58 44 -25 80 -51 80 -58 0 -7 -7 -21 -15 -32 -14 -18 -16
-18 -97 24 -46 23 -86 42 -90 42 -4 0 -17 -18 -28 -39 -23 -47 -24 -45 82 -95
43 -20 78 -39 78 -42 0 -3 -7 -18 -15 -34 l-15 -29 -67 31 c-38 16 -72 34 -77
39 -21 20 -46 8 -61 -27 -8 -20 -15 -39 -15 -43 0 -7 143 -71 159 -71 18 0 21
-17 10 -49 -6 -17 -12 -31 -13 -31 0 0 -41 16 -90 35 -49 19 -93 35 -97 35
-10 0 -32 -67 -27 -82 2 -6 42 -26 89 -43 76 -28 84 -34 81 -55 -1 -14 -6 -28
-11 -33 -5 -5 -45 3 -90 17 -45 14 -88 26 -95 26 -14 0 -42 -73 -33 -87 3 -5
32 -15 63 -22 31 -7 71 -19 90 -27 30 -13 34 -18 28 -42 -4 -15 -9 -29 -11
-31 -2 -3 -41 5 -87 17 -46 12 -91 22 -99 22 -19 0 -40 -77 -24 -87 6 -4 50
-17 97 -28 47 -12 85 -27 84 -33 -1 -7 -2 -21 -2 -32 -2 -25 -17 -25 -122 -4
-45 9 -83 14 -85 12 -3 -3 -8 -25 -11 -50 l-6 -46 88 -12 c104 -14 115 -21
105 -58 -9 -30 -7 -30 -121 -14 -41 5 -78 7 -82 3 -4 -3 -10 -24 -14 -47 l-6
-41 38 -6 c22 -3 67 -9 102 -13 l62 -7 0 -35 0 -35 -105 6 -105 7 0 -50 0 -50
39 0 c21 0 66 -3 100 -6 l61 -7 0 -34 0 -34 -102 2 -103 3 -3 -97 -3 -97 106
0 105 0 0 -34 0 -33 -61 -7 c-34 -3 -80 -6 -101 -6 l-39 0 3 -47 c3 -54 -7
-51 133 -42 l70 4 3 -37 3 -36 -89 -7 c-49 -4 -95 -11 -101 -15 -8 -4 -9 -21
-5 -48 6 -39 9 -42 38 -42 17 0 62 5 100 10 38 6 70 9 71 8 2 -2 6 -17 9 -34
l7 -32 -68 -11 c-37 -7 -83 -14 -101 -18 l-34 -6 7 -46 c4 -25 9 -48 11 -50 2
-3 37 3 77 12 117 26 119 26 128 -8 10 -36 8 -37 -94 -60 -45 -11 -85 -23 -88
-28 -9 -13 12 -87 25 -87 6 0 51 11 99 24 93 24 94 24 99 -24 3 -23 -3 -26
-84 -50 -48 -14 -90 -28 -94 -32 -8 -9 15 -88 25 -88 4 0 47 13 96 29 50 16
94 26 98 22 4 -4 9 -21 10 -36 2 -27 -2 -30 -83 -58 -47 -16 -87 -31 -89 -33
-5 -5 8 -67 18 -84 8 -11 14 -12 33 -3 39 20 159 65 162 61 8 -9 26 -48 26
-55 0 -5 -40 -26 -90 -47 -49 -22 -90 -42 -90 -46 0 -18 31 -80 41 -80 5 0 24
8 42 17 18 9 56 27 84 39 55 23 64 20 77 -22 5 -18 -4 -26 -71 -59 -109 -53
-106 -50 -83 -96 11 -21 23 -39 26 -39 3 0 45 21 92 46 81 43 87 45 99 27 26
-34 11 -54 -69 -97 -43 -23 -78 -47 -78 -54 0 -20 32 -72 45 -72 5 0 44 20 85
45 41 25 80 45 86 45 14 0 37 -51 27 -60 -4 -4 -41 -28 -80 -54 -40 -26 -73
-51 -73 -54 0 -15 40 -72 50 -72 6 0 43 23 82 50 79 55 92 59 108 31 17 -33
13 -39 -65 -93 -41 -29 -75 -57 -75 -63 0 -6 12 -25 28 -43 l27 -32 79 62 79
62 24 -28 23 -27 -72 -61 c-40 -33 -74 -64 -76 -69 -4 -10 39 -68 51 -68 5 -1
42 27 83 60 72 60 75 61 94 44 11 -10 20 -24 20 -31 0 -6 -32 -41 -71 -76
l-71 -64 27 -32 c15 -18 32 -32 38 -32 6 0 41 30 78 66 61 61 68 65 87 53 40
-25 35 -40 -33 -109 -36 -36 -65 -71 -65 -77 0 -6 15 -23 32 -38 l33 -28 65
72 c36 39 70 71 76 71 6 0 19 -9 29 -20 19 -21 23 -14 -82 -139 -12 -14 -22
-30 -23 -34 0 -10 52 -56 65 -57 6 0 35 31 65 69 58 74 76 83 104 52 16 -17
14 -22 -44 -97 l-60 -79 32 -27 c18 -16 37 -28 43 -28 6 0 35 34 64 75 28 41
57 75 64 75 21 -1 50 -29 44 -44 -3 -8 -26 -44 -51 -80 -25 -35 -46 -70 -46
-76 0 -10 57 -50 72 -50 4 0 31 36 59 80 29 44 55 80 59 80 4 0 18 -9 31 -19
20 -17 22 -23 12 -38 -26 -39 -83 -142 -83 -150 0 -11 53 -43 72 -43 7 0 31
33 52 73 55 101 53 99 87 81 16 -8 29 -16 29 -18 0 -2 -20 -42 -45 -87 -24
-46 -45 -87 -45 -91 0 -8 80 -52 85 -46 1 2 19 37 40 78 51 102 51 103 86 85
l29 -15 -21 -48 c-12 -26 -30 -64 -40 -84 -10 -20 -19 -42 -19 -47 0 -10 62
-41 80 -41 4 0 24 39 45 88 21 48 38 88 40 90 3 3 65 -19 65 -24 0 -2 -16 -45
-36 -95 -20 -50 -34 -92 -32 -93 14 -11 88 -34 91 -28 2 4 17 44 31 89 15 46
32 85 36 88 5 3 21 3 35 -1 31 -8 33 -34 6 -101 -10 -26 -21 -62 -25 -78 -6
-28 -4 -32 27 -43 18 -7 38 -12 44 -12 11 0 25 38 52 137 13 49 21 56 56 47
31 -8 32 -25 5 -123 -24 -84 -20 -93 36 -95 l36 -1 23 90 c22 89 22 90 51 87
16 -2 32 -6 36 -10 4 -4 -2 -47 -12 -97 -10 -49 -16 -93 -12 -97 4 -4 25 -8
47 -10 l40 -3 13 75 c20 110 25 120 59 111 27 -8 28 -9 24 -67 -10 -137 -11
-137 33 -146 21 -5 41 -7 43 -4 2 2 9 47 15 100 l11 96 39 0 39 0 -6 -62 c-3
-35 -8 -82 -11 -105 l-5 -43 49 0 50 0 7 100 7 100 34 0 33 0 3 -102 3 -103
93 -3 92 -3 0 106 0 105 34 0 34 0 7 -87 c3 -49 8 -94 10 -100 3 -8 22 -13 50
-13 l46 0 -7 105 -7 105 36 0 35 0 7 -72 c11 -131 10 -129 58 -122 23 4 45 9
48 13 4 3 1 47 -6 96 -7 50 -10 93 -6 96 3 4 18 9 33 13 25 6 28 3 34 -31 3
-21 12 -65 18 -98 l12 -60 43 2 c24 1 46 4 49 7 3 3 -2 40 -11 81 -24 107 -23
122 10 128 16 3 31 4 34 2 3 -2 14 -41 24 -87 10 -46 22 -88 27 -94 8 -12 72
-4 86 11 3 3 -5 48 -18 100 -13 52 -21 97 -19 99 2 2 16 7 31 11 31 8 36 0 65
-110 9 -33 20 -64 24 -69 10 -11 89 13 89 26 0 5 -12 49 -27 98 -14 50 -24 92
-21 95 3 3 18 7 34 8 27 2 30 -2 62 -90 l34 -91 45 15 c33 12 43 20 40 32 -3
9 -18 51 -34 93 -29 80 -28 90 14 103 19 5 25 1 33 -22 24 -65 65 -153 71
-153 18 0 79 32 79 41 0 6 -16 44 -35 85 -19 40 -35 80 -35 87 0 11 39 37 55
37 3 0 21 -35 42 -77 51 -108 48 -106 94 -83 21 11 39 25 39 30 0 6 -19 46
-42 90 -42 78 -42 81 -24 95 11 8 26 15 33 15 7 0 31 -34 54 -76 23 -42 48
-78 55 -81 18 -6 74 28 74 45 0 8 -21 48 -47 90 l-47 75 23 18 c13 11 27 19
32 19 4 0 31 -36 60 -80 28 -44 54 -80 57 -80 16 0 72 41 72 52 0 6 -23 45
-51 85 -49 72 -50 75 -33 94 9 10 23 19 30 19 7 0 38 -34 69 -75 30 -41 59
-75 63 -75 4 0 22 12 40 28 l33 27 -61 79 c-48 63 -58 81 -48 93 31 38 42 34
103 -43 33 -41 63 -74 68 -74 5 0 24 12 43 26 l34 26 -27 33 c-16 18 -45 54
-67 79 -38 45 -38 47 -21 66 10 11 24 20 31 20 6 0 41 -33 77 -72 l65 -73 31
29 c17 17 31 35 31 40 0 6 -30 42 -66 80 l-65 69 25 26 26 26 68 -68 c37 -37
72 -67 78 -67 6 0 23 14 40 31 l29 31 -72 67 c-40 37 -73 72 -73 78 0 10 32
43 43 43 3 0 36 -27 74 -60 37 -33 73 -60 79 -60 11 0 54 54 54 68 0 6 -31 35
-70 66 -38 31 -70 61 -70 65 0 5 8 19 19 32 l18 23 79 -62 79 -62 28 32 c15
18 27 37 27 44 0 6 -34 35 -75 63 -41 29 -75 58 -75 64 1 16 25 47 36 47 5 0
42 -23 83 -50 41 -28 78 -50 83 -50 10 0 48 60 48 75 0 6 -36 32 -80 59 -44
27 -80 52 -80 55 0 12 31 51 40 51 6 0 42 -20 82 -45 40 -25 77 -45 83 -45 13
0 45 52 45 72 0 7 -36 33 -80 58 -44 25 -80 50 -80 55 0 6 7 21 16 33 l16 23
83 -46 c46 -25 86 -45 89 -45 7 0 49 81 44 85 -2 1 -41 22 -88 45 -47 23 -86
44 -88 45 -2 2 3 17 12 33 l15 30 63 -25 c35 -14 72 -32 83 -39 11 -8 25 -14
32 -14 13 0 46 67 40 83 -1 5 -41 25 -87 44 -47 19 -86 36 -88 37 -3 4 19 66
23 66 11 0 152 -54 159 -62 6 -4 15 -8 22 -8 15 0 48 80 37 91 -4 4 -46 21
-93 37 -80 28 -85 32 -83 58 1 15 7 30 13 34 6 3 49 -6 97 -22 48 -15 90 -28
94 -28 11 0 32 69 26 84 -3 7 -27 18 -54 25 -26 7 -67 19 -90 28 -39 13 -42
17 -37 41 4 15 8 30 10 34 2 3 43 -5 91 -18 49 -13 93 -24 99 -24 6 0 16 18
22 40 11 46 5 54 -48 65 -19 4 -59 13 -88 22 -49 14 -52 16 -46 41 4 15 9 30
13 34 3 4 47 -1 96 -11 50 -10 93 -16 97 -12 4 3 10 24 14 47 l6 41 -78 13
c-114 18 -124 23 -115 57 9 31 8 31 132 19 l76 -8 7 42 c4 24 4 45 1 48 -3 4
-47 11 -98 17 l-92 10 0 35 0 35 50 -3 c28 -1 73 -5 101 -8 l52 -5 4 46 c2 26
1 48 -2 50 -3 1 -49 6 -102 10 l-98 7 0 34 0 34 105 0 106 0 -3 97 -3 97 -102
-3 -103 -2 0 34 0 34 61 7 c34 3 79 6 100 6 l39 0 0 50 0 50 -105 -7 -105 -6
0 35 0 36 68 6 c37 4 82 10 100 13 33 5 33 6 27 47 -4 22 -10 44 -14 48 -3 3
-46 0 -96 -7 -49 -7 -92 -12 -96 -9 -12 7 -16 54 -5 63 6 5 51 14 100 21 l88
12 -6 46 c-3 25 -8 48 -11 50 -3 3 -39 -2 -80 -11 -107 -24 -125 -23 -125 8 0
14 -1 28 -2 31 -2 3 40 17 92 30 52 14 96 27 98 28 2 2 -2 22 -8 45 -13 48
-15 49 -122 19 -82 -22 -90 -20 -103 19 -7 26 7 34 110 60 33 8 64 19 69 24
12 11 -11 89 -26 89 -7 0 -49 -12 -95 -27 -88 -29 -100 -27 -105 17 -3 22 4
27 84 55 48 16 89 33 93 36 7 8 -24 89 -35 89 -4 0 -45 -15 -91 -34 -88 -36
-100 -35 -113 10 -6 19 4 25 84 59 49 21 90 42 90 47 0 18 -29 78 -38 78 -5 0
-44 -16 -86 -35 -43 -19 -83 -35 -90 -35 -10 0 -36 39 -36 54 0 2 41 23 90 47
50 23 90 44 90 46 0 11 -41 83 -48 83 -4 0 -44 -20 -89 -45 l-83 -44 -15 22
c-8 12 -15 27 -15 34 0 7 36 31 80 55 44 24 80 49 80 56 0 23 -30 72 -44 72
-7 0 -48 -21 -91 -47 l-78 -46 -18 24 c-10 13 -19 27 -19 30 0 4 36 30 80 59
44 29 80 56 80 60 0 18 -36 70 -48 70 -8 0 -48 -23 -89 -52 l-75 -52 -19 23
c-11 13 -19 27 -19 31 0 4 34 32 75 62 41 29 75 57 75 62 0 12 -43 76 -51 76
-4 0 -35 -23 -70 -51 -90 -72 -94 -73 -113 -44 -9 13 -16 28 -16 32 1 4 32 32
70 62 39 30 70 60 70 67 0 8 -12 27 -27 44 l-28 30 -74 -65 c-41 -36 -78 -65
-82 -65 -3 0 -15 12 -24 27 l-18 27 74 67 74 67 -29 31 c-17 17 -34 31 -40 31
-6 0 -40 -29 -76 -65 -63 -63 -66 -64 -88 -49 -34 24 -27 45 38 109 33 33 60
64 60 70 0 6 -14 24 -31 41 l-30 29 -67 -74 c-64 -70 -69 -73 -90 -60 -12 7
-24 19 -26 25 -2 6 25 44 60 85 l64 74 -30 28 c-17 15 -36 27 -43 27 -7 0 -40
-33 -73 -74 l-60 -75 -29 23 -28 23 61 79 62 79 -30 28 c-17 15 -36 27 -43 27
-6 0 -36 -34 -65 -75 -30 -41 -58 -75 -62 -75 -4 0 -18 8 -31 19 l-23 19 52
75 c29 41 52 81 52 89 0 12 -52 48 -70 48 -5 0 -32 -36 -61 -80 -28 -44 -54
-80 -57 -80 -4 0 -18 9 -31 19 l-24 19 46 79 c26 44 47 85 47 91 0 15 -58 45
-75 38 -7 -2 -32 -39 -55 -80 -23 -42 -47 -76 -54 -76 -7 0 -21 6 -32 14 -18
14 -18 17 24 100 23 48 42 88 42 90 0 10 -73 45 -82 40 -5 -3 -27 -42 -49 -87
-21 -44 -40 -82 -43 -84 -2 -3 -18 3 -35 11 l-31 16 22 48 c11 26 29 63 39 83
11 20 19 42 19 48 0 13 -66 44 -81 39 -6 -2 -25 -41 -44 -87 -19 -46 -36 -86
-38 -88 -10 -9 -57 21 -57 36 1 9 14 50 30 91 17 41 30 78 30 81 0 10 -82 41
-89 34 -3 -4 -20 -45 -37 -93 -28 -79 -33 -87 -55 -84 -41 5 -43 17 -15 105
14 47 26 90 26 95 0 13 -66 36 -84 29 -7 -3 -20 -34 -29 -70 -27 -107 -32
-115 -62 -109 -36 6 -41 24 -21 84 9 28 19 68 22 89 6 37 6 38 -36 49 -23 6
-44 9 -47 7 -2 -3 -14 -46 -26 -97 -12 -50 -26 -91 -30 -91 -4 1 -19 1 -33 1
-26 0 -27 1 -20 55 3 31 12 76 18 100 7 24 9 47 5 51 -3 3 -26 9 -50 11 l-43
5 -18 -101 -18 -101 -26 6 c-15 4 -30 9 -34 13 -4 3 -1 48 6 99 l13 94 -24 9
c-13 5 -35 9 -48 9 -27 0 -30 -11 -40 -127 l-7 -73 -35 0 -36 0 7 105 7 105
-40 0 c-23 0 -44 1 -48 3 -9 2 -10 -3 -18 -115 l-7 -88 -34 0 -34 0 0 105 0
105 -95 0 -95 0 0 -105z m355 -306 c218 -19 554 -97 720 -168 11 -5 49 -21 85
-36 510 -215 976 -618 1257 -1087 178 -298 285 -575 346 -900 43 -225 45 -245
45 -518 0 -232 -3 -282 -23 -405 -52 -310 -120 -527 -249 -790 -402 -818
-1163 -1368 -2081 -1501 -168 -24 -543 -25 -714 0 -610 86 -1153 356 -1581
788 -326 328 -568 749 -694 1208 -98 356 -116 839 -45 1200 144 735 556 1359
1163 1763 115 77 329 193 446 242 36 15 74 31 85 36 92 39 368 114 533 144
183 33 485 44 707 24z" />
        <path d="M3423 6350 c-162 -21 -238 -37 -408 -87 -626 -182 -1161 -592 -1507
-1153 -102 -166 -208 -402 -266 -595 -87 -285 -107 -429 -107 -770 0 -292 4
-332 52 -560 129 -613 497 -1185 1004 -1556 335 -246 759 -425 1134 -479 39
-6 104 -15 145 -22 97 -15 473 -15 570 0 41 7 107 16 145 22 90 13 228 45 335
77 630 191 1182 630 1513 1205 232 403 347 838 347 1313 0 459 -111 886 -331
1277 -257 458 -627 816 -1093 1058 -462 239 -1014 336 -1533 270z m672 -81
c189 -26 463 -94 560 -139 11 -5 45 -19 75 -30 244 -94 555 -295 772 -499 403
-380 665 -868 765 -1430 24 -132 27 -171 27 -406 1 -309 -10 -401 -76 -660
-187 -729 -710 -1352 -1396 -1665 -588 -268 -1236 -306 -1852 -109 -52 17
-108 37 -125 44 -16 7 -50 21 -75 31 -87 34 -306 151 -406 217 -267 177 -520
423 -698 681 -74 107 -177 291 -229 411 -27 61 -52 117 -56 125 -14 27 -89
283 -109 375 -120 529 -46 1139 198 1640 306 626 828 1085 1490 1309 343 116
771 155 1135 105z" />
        <path d="M3477 6063 c-38 -3 -50 -9 -57 -26 -4 -12 -16 -173 -25 -357 -10
-184 -18 -344 -19 -355 -1 -24 1 -25 58 -25 l43 0 6 76 c3 42 7 77 9 79 2 2
25 5 53 6 l49 4 16 -70 15 -70 48 -3 c33 -2 49 1 52 10 3 8 -29 153 -70 323
-95 384 -104 415 -118 413 -7 -1 -34 -3 -60 -5z m62 -349 c30 -129 29 -134
-15 -134 l-37 0 6 68 c4 37 7 94 7 127 1 75 11 59 39 -61z" />
        <path d="M4046 6033 c-16 -54 -147 -705 -144 -715 4 -11 180 -56 224 -57 16
-1 23 7 28 30 12 62 11 64 -59 78 -52 11 -65 17 -65 32 0 10 27 147 60 305 33
158 60 295 60 305 0 12 -10 19 -32 24 -18 4 -41 9 -50 11 -10 3 -18 -2 -22
-13z" />
        <path d="M2850 5914 c-25 -13 -49 -25 -53 -26 -4 -2 12 -82 37 -178 25 -96 44
-176 42 -178 -2 -1 -50 60 -106 138 -57 77 -107 143 -111 146 -7 4 -103 -38
-118 -52 -2 -2 27 -67 64 -146 38 -79 96 -202 131 -275 34 -72 75 -159 90
-192 14 -34 33 -61 41 -61 11 0 69 25 81 35 1 1 -45 102 -103 225 -58 123
-104 224 -103 226 2 1 55 -74 118 -169 161 -239 167 -247 185 -241 8 4 15 14
15 23 0 10 -26 105 -58 212 -33 107 -62 208 -66 224 l-6 30 16 -29 c9 -15 54
-110 101 -210 47 -99 88 -184 92 -189 8 -8 91 24 91 35 0 4 -30 72 -67 150
-202 426 -249 522 -258 524 -6 1 -30 -8 -55 -22z" />
        <path d="M4501 5529 c-123 -161 -225 -298 -228 -305 -3 -8 12 -21 38 -35 l43
-21 20 25 c12 13 34 41 49 61 27 35 29 35 55 22 68 -36 68 -35 38 -109 -14
-36 -26 -68 -26 -71 0 -7 75 -46 88 -46 5 0 13 15 19 33 6 17 40 111 76 207
134 363 167 455 167 465 0 9 -96 65 -111 65 -3 0 -106 -131 -228 -291z m129
-70 c-23 -57 -43 -105 -45 -107 -6 -6 -55 30 -55 40 0 16 134 191 137 181 2
-6 -15 -57 -37 -114z" />
        <path d="M2161 5476 l-33 -34 108 -119 c60 -65 174 -189 253 -276 79 -86 146
-157 150 -157 9 0 71 64 71 73 0 11 -490 542 -503 545 -7 1 -27 -13 -46 -32z" />
        <path d="M5206 5458 c-8 -13 -61 -97 -118 -188 -92 -147 -116 -177 -213 -270
-61 -58 -111 -110 -113 -115 -1 -6 13 -26 33 -45 l35 -34 53 49 c28 28 81 77
117 111 48 46 109 85 235 154 94 51 180 99 193 107 l22 14 -26 34 c-14 19 -34
35 -43 35 -9 0 -59 -25 -110 -55 -51 -30 -97 -55 -102 -55 -5 0 22 46 60 103
l69 103 -34 37 c-19 20 -36 37 -39 37 -2 0 -11 -10 -19 -22z" />
        <path d="M1828 5098 c-15 -23 -25 -45 -22 -49 2 -4 60 -42 129 -85 69 -42 125
-79 125 -82 0 -17 -44 -71 -53 -65 -7 3 -64 39 -128 80 -64 40 -119 73 -123
73 -11 0 -58 -79 -52 -89 9 -13 611 -391 624 -391 17 0 68 80 56 88 -6 4 -67
43 -137 87 -70 44 -127 85 -127 90 0 6 10 23 23 38 l22 28 129 -81 c70 -45
133 -83 140 -86 6 -2 22 16 36 41 22 40 23 48 10 56 -8 5 -150 94 -315 199
-165 104 -302 190 -305 190 -3 0 -17 -19 -32 -42z" />
        <path d="M5555 4800 c-66 -21 -219 -68 -340 -105 -121 -37 -223 -69 -227 -72
-7 -4 18 -72 32 -86 4 -5 38 1 76 12 37 11 72 17 77 14 10 -6 37 -66 37 -82 0
-6 -27 -29 -60 -51 l-60 -41 16 -37 c8 -20 19 -41 24 -46 9 -9 104 53 460 297
63 44 127 87 142 96 34 20 34 29 3 91 -16 32 -31 50 -43 49 -9 0 -71 -18 -137
-39z m-35 -119 c0 -11 -182 -131 -198 -131 -14 0 -36 49 -27 59 4 3 54 22 113
42 59 20 108 37 110 38 1 0 2 -3 2 -8z" />
        <path d="M2980 3600 l0 -300 40 0 40 0 0 300 0 300 -40 0 -40 0 0 -300z" />
        <path d="M3100 3855 l0 -45 40 0 40 0 0 -255 0 -255 40 0 40 0 0 254 0 255 43
3 c42 3 42 3 42 43 l0 40 -122 3 -123 3 0 -46z" />
        <path d="M3553 3880 c-49 -29 -55 -65 -51 -307 l3 -212 29 -30 c25 -26 37 -31
76 -31 80 0 120 50 120 150 l0 50 -40 0 -40 0 0 -49 c0 -52 -18 -78 -45 -67
-13 5 -15 34 -13 213 l3 208 25 0 c23 0 25 -4 28 -57 l3 -58 39 0 40 0 0 59
c0 118 -90 185 -177 131z" />
        <path d="M3780 3600 l0 -300 100 0 100 0 0 40 0 40 -55 0 -55 0 0 260 0 260
-45 0 -45 0 0 -300z" />
        <path d="M4020 3645 c0 -274 3 -295 52 -329 29 -21 97 -20 127 0 46 33 51 65
51 334 l0 250 -45 0 -45 0 0 -255 c0 -223 -2 -256 -16 -262 -35 -13 -39 12
-42 267 l-3 250 -39 0 -40 0 0 -255z" />
        <path d="M4310 3600 l0 -302 84 3 c95 4 126 22 147 86 18 55 8 163 -19 200
l-23 32 21 29 c44 60 35 165 -20 217 -26 25 -38 29 -110 33 l-80 5 0 -303z
m134 194 c36 -35 13 -144 -30 -144 -11 0 -14 17 -14 80 0 84 10 99 44 64z m0
-240 c11 -10 16 -34 16 -70 0 -64 -13 -94 -40 -94 -18 0 -20 7 -20 90 0 95 9
110 44 74z" />
        <path d="M1356 3073 c-3 -3 -6 -21 -6 -40 l0 -33 160 0 160 0 0 -150 0 -150
550 0 549 0 70 -72 c50 -52 71 -81 71 -99 0 -38 42 -79 80 -79 41 0 80 39 80
80 0 39 -39 80 -77 80 -21 0 -47 19 -111 83 l-82 82 -488 2 c-268 1 -504 3
-524 3 l-38 0 0 110 0 110 613 0 614 0 216 -217 c195 -196 217 -221 217 -251
0 -43 38 -82 80 -82 41 0 80 39 80 80 0 39 -39 80 -76 80 -21 0 -64 39 -215
193 l-189 192 336 3 c184 1 484 1 666 0 l330 -3 -186 -191 c-164 -169 -191
-192 -225 -198 -48 -7 -66 -28 -66 -78 0 -47 30 -78 77 -78 38 0 78 40 78 79
0 35 9 46 250 286 l184 185 613 0 613 0 1 -72 c1 -80 -1 -141 -6 -146 -1 -2
-237 -4 -524 -5 l-521 -2 -82 -82 c-64 -64 -90 -83 -111 -83 -33 0 -77 -40
-77 -70 0 -29 26 -76 45 -84 53 -20 115 18 115 71 0 22 17 45 73 101 l72 72
548 0 547 0 0 150 0 150 160 0 160 0 0 40 0 39 -2399 0 c-1319 1 -2401 -2
-2405 -6z" />
        <path d="M3130 1900 l0 -141 88 3 c79 3 87 5 87 23 0 18 -8 20 -62 23 l-63 3
0 34 0 35 56 0 c52 0 55 1 52 23 -3 19 -10 22 -55 25 -51 3 -53 4 -53 33 0 29
0 29 60 29 57 0 60 1 60 25 0 25 -1 25 -85 25 l-85 0 0 -140z" />
        <path d="M3915 2024 c-43 -22 -47 -28 -31 -49 14 -19 15 -19 33 -2 24 21 56
22 73 2 18 -22 4 -46 -57 -94 -50 -39 -74 -85 -58 -111 3 -5 44 -10 91 -10 83
0 84 0 84 25 0 24 -3 25 -61 25 -37 0 -59 4 -57 10 2 6 26 27 53 48 76 57 87
125 25 157 -37 19 -57 19 -95 -1z" />
        <path d="M4143 2020 c-36 -21 -47 -51 -47 -120 0 -69 11 -99 47 -120 69 -42
137 -12 157 69 19 82 -7 161 -61 180 -44 15 -59 14 -96 -9z m97 -49 c5 -11 10
-43 10 -71 0 -66 -13 -90 -49 -90 -41 0 -54 22 -54 90 0 33 5 66 13 74 18 23
67 20 80 -3z" />
        <path d="M4388 2023 c-29 -12 -38 -21 -38 -39 0 -21 3 -22 26 -14 14 6 27 10
30 10 2 0 4 -38 4 -85 l0 -85 -30 0 c-25 0 -30 -4 -30 -25 0 -26 0 -26 83 -23
74 3 82 5 82 23 0 14 -8 21 -27 23 l-28 3 0 115 c0 128 1 127 -72 97z" />
        <path d="M4540 2015 c0 -24 3 -25 55 -25 30 0 55 -5 55 -10 0 -6 -18 -53 -40
-106 -22 -53 -40 -100 -40 -105 0 -14 36 -11 47 4 19 24 95 226 91 244 -3 15
-15 18 -86 21 -82 3 -82 3 -82 -23z" />
        <path d="M3553 2003 c-4 -10 -12 -22 -20 -26 -18 -11 -17 -36 2 -43 11 -5 15
-23 15 -75 0 -59 3 -70 22 -83 26 -19 59 -21 75 -5 17 17 4 39 -23 39 -23 0
-24 3 -24 59 0 54 2 60 23 63 14 2 23 11 25 26 3 18 -1 22 -22 22 -19 0 -26 5
-26 20 0 25 -38 27 -47 3z" />
        <path d="M3372 1963 c-7 -3 -18 -16 -23 -30 -14 -36 11 -70 61 -83 41 -11 53
-33 24 -44 -9 -3 -29 0 -45 8 -24 12 -30 12 -40 0 -20 -25 14 -49 67 -49 36 0
50 5 65 24 37 45 18 82 -51 101 -26 7 -40 17 -40 27 0 12 8 15 40 10 47 -6 74
15 41 32 -20 11 -76 13 -99 4z" />
        <path d="M3694 1805 c-4 -9 0 -23 8 -31 20 -20 50 -7 46 20 -4 26 -45 35 -54
11z" />
        <path d="M1637 6814 c-4 -4 -7 -20 -7 -36 0 -26 3 -28 41 -28 l41 0 -7 -49
c-6 -47 -6 -49 22 -54 15 -3 29 -4 31 -3 1 2 11 35 21 75 l19 72 -21 8 c-33
13 -132 23 -140 15z" />
        <path d="M5858 6803 c-21 -25 -108 -151 -108 -157 0 -9 74 -56 87 -56 13 0
123 147 123 165 0 6 -10 16 -22 24 -13 8 -32 20 -44 28 -18 11 -23 11 -36 -4z" />
        <path d="M1484 6685 c-8 -31 6 -45 48 -45 34 0 39 -8 29 -52 -9 -39 -1 -48 39
-48 15 0 22 15 35 76 10 41 16 77 14 79 -2 1 -39 6 -81 10 l-77 7 -7 -27z" />
        <path d="M5975 6614 c-37 -47 -63 -90 -58 -94 4 -4 42 -36 83 -70 41 -34 93
-78 115 -99 22 -20 61 -56 87 -80 l47 -42 70 73 c39 40 71 78 71 84 0 6 -19
28 -43 50 -83 77 -213 191 -258 227 l-47 38 -67 -87z" />
        <path d="M1348 6594 c-5 -4 -8 -20 -8 -35 0 -26 3 -28 43 -31 l42 -3 0 -45 c0
-43 1 -45 30 -45 27 0 30 4 37 40 4 22 7 57 7 78 1 32 -2 37 -21 37 -13 0 -45
3 -73 6 -27 3 -53 3 -57 -2z" />
        <path d="M1260 6471 c-51 -6 -55 -8 -58 -33 -3 -27 -2 -28 42 -28 l46 0 0 -50
c0 -49 1 -50 29 -50 17 0 32 4 35 8 2 4 6 41 7 82 3 86 7 83 -101 71z" />
        <path d="M997 6262 c-141 -157 -190 -219 -182 -233 4 -5 41 -37 82 -70 62 -49
78 -58 88 -47 7 7 41 47 75 88 34 41 87 102 118 136 32 33 66 70 76 82 l20 23
-69 69 c-38 39 -77 70 -86 70 -8 0 -63 -53 -122 -118z" />
        <path d="M6420 6256 l0 -46 -50 0 c-48 0 -50 -1 -50 -29 0 -25 4 -29 38 -35
20 -3 59 -6 85 -6 l48 0 -3 78 -3 77 -32 3 c-33 3 -33 3 -33 -42z" />
        <path d="M6540 6121 l0 -41 -50 0 -50 0 0 -34 0 -33 76 -7 c42 -4 78 -6 79 -4
2 2 5 37 7 78 l3 75 -32 3 c-32 3 -33 2 -33 -37z" />
        <path d="M1170 6018 c-152 -174 -292 -371 -408 -575 -60 -104 -182 -355 -182
-372 0 -7 -8 -28 -19 -49 -10 -20 -35 -85 -55 -145 -20 -59 -39 -114 -42 -122
-4 -10 16 -20 78 -39 46 -14 91 -26 99 -26 10 0 23 25 39 73 60 187 173 435
295 647 65 113 236 346 336 460 44 50 79 96 77 103 -2 7 -33 40 -70 75 l-66
63 -82 -93z" />
        <path d="M6657 6013 c-4 -3 -7 -22 -7 -40 l0 -35 -47 3 c-47 3 -48 3 -51 -28
-3 -30 -2 -32 50 -42 109 -21 102 -24 112 51 5 36 6 73 3 82 -6 16 -47 22 -60
9z" />
        <path d="M715 5915 c-14 -20 -25 -43 -23 -52 2 -8 39 -40 82 -70 87 -59 91
-59 129 6 l18 30 -81 61 c-45 33 -85 60 -90 60 -4 0 -20 -16 -35 -35z" />
        <path d="M6758 5833 l-3 -38 -46 3 c-43 3 -47 1 -53 -24 -4 -14 -6 -27 -4 -29
5 -3 136 -35 147 -35 11 0 35 135 26 150 -3 5 -19 10 -35 10 -26 0 -29 -4 -32
-37z" />
        <path d="M6420 5759 c-36 -29 -65 -59 -64 -68 0 -9 30 -56 65 -106 121 -167
268 -444 353 -661 45 -116 118 -360 147 -488 l22 -98 51 6 c28 4 70 12 94 18
35 9 42 14 42 34 0 52 -55 267 -113 445 -23 68 -38 109 -109 284 -86 213 -370
685 -411 685 -7 0 -41 -23 -77 -51z" />
        <path d="M611 5759 c-25 -28 -48 -82 -35 -86 5 -2 45 -26 89 -53 86 -53 90
-52 121 6 l19 36 -27 21 c-15 12 -54 39 -87 59 l-60 38 -20 -21z" />
        <path d="M484 5549 c-14 -28 -24 -52 -22 -54 7 -6 178 -95 183 -95 6 0 55 77
55 87 0 8 -173 113 -184 113 -3 0 -17 -23 -32 -51z" />
        <path d="M6938 5464 l-87 -46 39 -78 c61 -121 116 -241 129 -282 7 -21 17 -40
22 -44 9 -5 113 33 171 62 l27 14 -25 67 c-43 115 -162 353 -176 353 -7 -1
-52 -21 -100 -46z" />
        <path d="M390 5364 c-11 -25 -20 -49 -20 -53 0 -8 173 -91 189 -91 9 0 41 71
41 90 0 8 -170 100 -185 100 -3 0 -15 -21 -25 -46z" />
        <path d="M290 5138 c-55 -143 -110 -309 -113 -342 -2 -29 1 -32 43 -44 25 -7
66 -20 92 -28 26 -9 51 -13 56 -10 5 3 22 45 36 93 15 49 48 141 73 206 26 68
42 122 37 126 -11 11 -171 81 -184 81 -4 0 -23 -37 -40 -82z" />
        <path d="M7240 4730 c-103 -30 -101 -28 -79 -97 6 -18 16 -33 22 -33 20 1 187
46 193 53 7 7 -25 107 -34 106 -4 0 -50 -13 -102 -29z" />
        <path d="M135 4657 c-15 -47 -23 -92 -17 -98 13 -13 195 -50 202 -42 5 4 13
26 19 48 14 50 5 58 -82 75 -34 6 -75 16 -90 21 -20 6 -29 5 -32 -4z" />
        <path d="M7330 4540 c-14 -5 -51 -14 -82 -20 l-57 -11 6 -37 c3 -20 10 -44 14
-53 9 -17 17 -17 158 12 l53 11 -6 45 c-3 24 -8 49 -12 54 -6 11 -40 10 -74
-1z" />
        <path d="M133 4398 c-56 -43 -61 -53 -39 -83 13 -17 15 -17 48 9 l36 27 26
-32 c21 -25 32 -30 51 -25 14 4 25 12 25 19 0 18 -73 127 -85 126 -5 0 -34
-18 -62 -41z" />
        <path d="M99 4211 l-54 -49 22 -23 22 -22 32 28 33 27 26 -31 c30 -36 37 -37
61 -15 17 15 16 19 -23 75 -23 33 -47 59 -53 59 -6 0 -36 -22 -66 -49z" />
        <path d="M7036 4229 c-33 -5 -63 -12 -68 -17 -4 -4 -3 -37 3 -72 24 -150 27
-598 4 -756 l-7 -52 51 -11 c76 -16 138 -14 145 4 29 76 40 550 17 740 -22
185 -19 175 -54 174 -18 -1 -59 -5 -91 -10z" />
        <path d="M346 4182 c-3 -5 -10 -69 -17 -143 -22 -253 3 -789 37 -789 33 0 170
22 176 29 5 4 4 43 -2 86 -23 196 -29 459 -14 620 5 44 8 102 9 130 l0 50 -65
12 c-77 14 -117 16 -124 5z" />
        <path d="M92 4040 c-55 -49 -63 -73 -30 -94 13 -8 22 -5 42 17 14 15 29 27 33
27 4 0 20 -14 35 -32 l27 -33 22 22 22 22 -43 56 c-24 30 -46 57 -49 59 -3 2
-30 -18 -59 -44z" />
        <path d="M76 3851 c-33 -33 -47 -55 -43 -65 12 -30 37 -30 68 0 l29 28 33 -32
c32 -31 34 -32 50 -14 9 10 17 23 17 28 0 13 -84 104 -96 104 -5 0 -32 -22
-58 -49z" />
        <path d="M7297 3722 c-9 -10 -17 -22 -17 -27 0 -9 80 -98 93 -104 10 -4 107
89 107 103 0 5 -8 18 -17 28 -16 18 -18 17 -50 -14 l-33 -32 -33 32 c-32 31
-34 32 -50 14z" />
        <path d="M7286 3541 c-16 -18 -15 -21 26 -72 24 -29 48 -54 53 -55 6 -2 34 18
64 45 l54 47 -18 27 -17 27 -39 -31 -39 -31 -26 31 c-30 36 -35 37 -58 12z" />
        <path d="M7272 3368 c-7 -7 -12 -16 -12 -22 0 -13 79 -116 88 -116 5 0 32 22
62 48 48 43 52 50 41 70 -15 29 -29 28 -63 -5 l-29 -28 -25 33 c-27 34 -43 39
-62 20z" />
        <path d="M7258 3199 c-10 -5 -18 -17 -18 -26 0 -15 68 -123 77 -123 3 0 31 21
64 46 50 38 58 48 49 64 -17 31 -29 32 -63 6 l-32 -26 -30 35 c-24 28 -33 33
-47 24z" />
        <path d="M480 3143 c-14 -2 -42 -9 -64 -14 l-38 -10 6 -50 c16 -116 151 -567
184 -613 4 -6 14 -29 21 -51 26 -78 177 -372 249 -485 65 -101 165 -240 174
-240 4 0 42 25 83 56 49 35 73 59 68 67 -4 7 -36 52 -71 100 -96 134 -218 352
-308 552 -73 163 -156 422 -192 600 l-19 90 -34 1 c-19 1 -45 0 -59 -3z" />
        <path d="M188 3071 c-49 -10 -91 -20 -94 -24 -7 -7 4 -77 15 -96 7 -10 27 -9
110 10 l103 23 -7 35 c-10 57 -16 71 -28 70 -7 -1 -51 -9 -99 -18z" />
        <path d="M7180 2939 c-6 -22 -9 -47 -6 -54 4 -10 163 -55 196 -55 12 0 31 93
21 103 -8 8 -87 28 -163 41 -37 7 -37 6 -48 -35z" />
        <path d="M223 2867 c-78 -20 -83 -23 -83 -49 0 -14 5 -39 10 -54 12 -31 28
-30 146 5 l71 22 -10 50 c-11 57 -10 57 -134 26z" />
        <path d="M6857 2802 c-3 -4 -14 -38 -27 -77 -91 -281 -253 -603 -424 -840 -84
-116 -229 -297 -265 -329 -11 -11 -21 -24 -21 -30 0 -15 122 -136 136 -136 11
0 128 131 226 255 147 185 343 516 426 720 65 161 86 215 107 279 13 39 26 78
30 87 6 16 -18 26 -172 74 -7 2 -14 1 -16 -3z" />
        <path d="M7135 2768 c-2 -7 -17 -56 -33 -108 -16 -52 -48 -141 -72 -198 -23
-57 -40 -106 -37 -108 3 -3 45 -23 94 -44 101 -44 100 -44 133 40 41 103 120
335 120 352 0 22 -19 32 -100 52 -36 9 -73 19 -83 22 -9 3 -19 0 -22 -8z" />
        <path d="M370 2446 c-81 -32 -85 -35 -84 -63 2 -48 167 -403 188 -403 25 0
176 86 176 101 0 8 -13 40 -29 70 -16 30 -52 108 -81 174 -59 139 -63 148 -76
151 -5 2 -47 -12 -94 -30z" />
        <path d="M6926 2224 c-10 -25 -16 -47 -14 -50 11 -10 170 -84 182 -84 11 0 61
88 53 96 -8 9 -179 84 -190 84 -6 0 -20 -21 -31 -46z" />
        <path d="M6832 2045 l-22 -45 23 -14 c67 -42 150 -86 160 -86 16 0 65 92 51
97 -5 2 -46 24 -89 48 -43 25 -83 45 -90 45 -6 0 -21 -20 -33 -45z" />
        <path d="M6736 1882 c-14 -21 -26 -42 -26 -48 0 -10 158 -114 174 -114 6 0 17
10 25 23 8 12 20 32 28 44 13 20 10 23 -76 77 -50 31 -92 56 -95 56 -2 0 -15
-17 -30 -38z" />
        <path d="M700 1773 c0 -5 -5 -37 -10 -73 -10 -69 -5 -80 37 -80 18 0 22 6 25
38 l3 37 46 -2 c43 -2 47 0 53 23 4 15 5 28 2 31 -6 6 -117 32 -138 33 -10 0
-18 -3 -18 -7z" />
        <path d="M6627 1718 c-13 -18 -27 -38 -31 -45 -4 -7 26 -35 78 -72 46 -34 87
-61 90 -61 3 0 19 19 36 41 22 31 27 45 20 55 -12 14 -155 114 -164 114 -3 0
-16 -15 -29 -32z" />
        <path d="M806 1632 c-2 -4 -7 -39 -11 -78 l-7 -71 27 -7 c34 -9 43 -1 47 44
l3 35 48 -3 c46 -4 47 -3 47 26 0 29 -2 31 -69 46 -81 19 -78 18 -85 8z" />
        <path d="M6452 1493 c-44 -54 -104 -120 -131 -148 -93 -92 -93 -86 -10 -163
39 -37 74 -68 79 -70 17 -6 309 317 310 344 0 9 -151 134 -163 134 -2 0 -40
-44 -85 -97z" />
        <path d="M912 1413 c3 -76 4 -78 30 -81 25 -3 27 0 30 40 l3 43 45 0 c43 0 45
1 45 30 0 34 -20 42 -108 44 l-48 1 3 -77z" />
        <path d="M1468 1324 c-34 -36 -64 -71 -66 -77 -5 -22 248 -231 423 -349 232
-157 433 -262 690 -361 154 -59 222 -80 237 -74 14 5 58 134 58 168 0 11 -32
27 -112 54 -62 21 -117 41 -123 45 -5 4 -21 11 -35 15 -26 8 -50 18 -180 78
-64 29 -121 60 -310 168 -92 53 -334 234 -452 339 l-66 60 -64 -66z" />
        <path d="M1032 1273 c3 -76 4 -78 30 -81 25 -3 27 0 30 40 l3 43 48 3 c48 3
48 4 45 35 l-3 32 -78 3 -78 3 3 -78z" />
        <path d="M1187 1191 c-37 -38 -67 -73 -67 -78 0 -18 284 -279 331 -304 14 -7
30 6 83 71 36 44 66 81 66 84 0 2 -37 35 -82 72 -46 38 -120 103 -165 146 -45
43 -86 78 -91 78 -5 0 -39 -31 -75 -69z" />
        <path d="M6156 1164 c-3 -9 -6 -45 -6 -80 l0 -65 78 3 c75 3 77 4 80 30 3 25
0 27 -40 30 l-43 3 -3 48 c-3 44 -5 47 -31 47 -17 0 -31 -7 -35 -16z" />
        <path d="M5605 1087 c-307 -222 -722 -405 -1125 -497 -132 -30 -130 -29 -130
-50 0 -11 7 -53 17 -95 19 -89 8 -86 171 -49 393 88 818 277 1176 522 130 88
124 72 55 163 -33 44 -61 79 -62 79 -1 -1 -47 -33 -102 -73z" />
        <path d="M6020 1033 c0 -16 -3 -52 -6 -80 l-7 -53 82 0 81 0 0 30 c0 28 -2 30
-40 30 l-40 0 0 50 0 50 -35 0 c-31 0 -35 -3 -35 -27z" />
        <path d="M5880 879 c-7 -39 -8 -74 -4 -79 5 -4 39 -10 76 -13 70 -6 78 -2 78
44 0 16 -7 19 -40 19 l-40 0 0 50 c0 49 -1 50 -29 50 -28 0 -30 -2 -41 -71z" />
        <path d="M1611 825 c-34 -47 -61 -87 -61 -90 0 -8 74 -55 86 -55 7 0 37 37 69
83 l56 82 -37 33 c-21 17 -41 32 -45 32 -4 0 -34 -38 -68 -85z" />
        <path d="M5735 774 c-9 -41 -15 -77 -13 -80 2 -2 37 -7 77 -10 66 -6 73 -5 77
12 9 34 5 39 -33 44 -38 5 -38 5 -36 50 2 45 -7 60 -38 60 -13 0 -21 -19 -34
-76z" />
        <path d="M1786 717 c-64 -103 -63 -101 -19 -131 21 -14 41 -26 45 -26 8 0 79
106 106 157 11 20 8 25 -25 48 -21 14 -43 25 -49 25 -7 0 -33 -33 -58 -73z" />
        <path d="M1960 607 c-25 -45 -45 -88 -45 -95 0 -12 84 -68 89 -60 11 15 96
180 96 185 0 9 -74 53 -87 53 -4 0 -28 -37 -53 -83z" />
        <path d="M5397 634 c-9 -10 -255 -123 -314 -146 -29 -10 -55 -23 -57 -27 -5
-8 19 -80 51 -154 15 -34 20 -38 44 -33 74 15 399 170 399 190 0 13 -64 141
-83 164 -10 13 -30 16 -40 6z" />
        <path d="M2182 587 c-14 -17 -82 -163 -82 -176 0 -10 70 -51 88 -51 8 0 92
171 92 188 0 5 -20 18 -44 29 -34 17 -47 19 -54 10z" />
        <path d="M4085 525 c-125 -17 -513 -19 -641 -3 -52 6 -97 9 -100 5 -3 -3 -11
-46 -18 -96 -15 -105 -27 -94 126 -112 123 -14 591 -6 711 12 l89 14 -7 68
c-10 97 -18 122 -41 124 -10 0 -64 -5 -119 -12z" />
        <path d="M2326 424 c-20 -47 -36 -92 -36 -99 0 -12 37 -30 155 -75 33 -12 76
-28 95 -36 94 -35 181 -57 190 -48 15 15 62 186 53 195 -5 5 -46 20 -92 34
-45 13 -134 45 -196 70 -62 25 -118 45 -123 45 -6 0 -26 -39 -46 -86z" />
        <path d="M4665 348 c-22 -5 -43 -12 -48 -17 -4 -4 3 -50 16 -102 l24 -94 36 1
c50 2 67 10 67 35 0 23 -40 171 -49 180 -3 3 -24 2 -46 -3z" />
        <path d="M2886 321 c-11 -18 -47 -182 -42 -190 3 -5 20 -11 38 -13 18 -3 40
-7 48 -9 10 -3 19 14 31 64 33 135 33 133 -2 146 -39 13 -66 14 -73 2z" />
        <path d="M4462 303 c-18 -3 -36 -11 -39 -19 -7 -19 18 -171 32 -190 8 -12 19
-13 54 -5 23 5 45 11 48 14 2 3 -5 48 -16 101 -12 53 -21 98 -21 101 0 3 -6 4
-12 3 -7 0 -28 -3 -46 -5z" />
        <path d="M3117 229 c-63 -44 -63 -39 -7 -112 38 -50 47 -54 75 -33 18 13 18
15 -8 49 l-27 35 35 29 c34 27 35 29 20 51 -9 12 -19 22 -23 21 -4 0 -33 -18
-65 -40z" />
        <path d="M3297 205 c-31 -25 -57 -49 -57 -53 0 -4 22 -31 48 -61 45 -50 50
-53 70 -40 28 18 28 24 -4 62 l-26 31 31 25 c36 30 38 41 13 64 -17 15 -22 13
-75 -28z" />
        <path d="M3473 187 c-29 -23 -52 -47 -52 -52 -1 -21 97 -108 113 -102 30 12
30 37 0 68 l-28 29 35 29 c34 29 34 29 15 50 -11 12 -22 21 -25 21 -3 0 -29
-20 -58 -43z" />
        <path d="M3648 175 c-27 -24 -48 -47 -48 -52 0 -11 93 -103 105 -103 4 0 17 8
27 17 18 16 17 18 -14 50 l-32 33 32 33 c31 32 32 34 14 50 -26 24 -31 22 -84
-28z" />
    </g>
</svg>