<svg width="379" height="437" viewBox="0 0 379 437" fill="none" xmlns="http://www.w3.org/2000/svg">
<path d="M9 116L189 11L369.5 116V325L189 426.5L9 325V116Z" stroke="black" stroke-width="18"/>
<path d="M12 118L189 17L365.5 118V321.059L189 420.5L12 320.775V118Z" fill="url(#paint0_linear_57_54)"/>
<g filter="url(#filter0_d_57_54)">
<path d="M55 172.5H78L79 206.5H124.5V160.5L149 137V266H124.5V230.5H78L79 277L55 300.5V172.5Z" fill="white" stroke="white"/>
<path d="M159 195V171.5H253V195H159Z" fill="white" stroke="white"/>
<path d="M159 265V241.5H253V265H159Z" fill="white" stroke="white"/>
<path d="M264.5 217.5V195L294 224L312.5 206H335.5L305.5 235.5L323.5 254.5V276L294 247L276 265.5H254L283 235.5L264.5 217.5Z" fill="white" stroke="white"/>
<path d="M159 231V207.5H253V231H159Z" fill="white" stroke="white"/>
<path d="M163.194 249.83V252.386H167.316V254.762H163.194V257.534H167.856V260H160.116V247.364H167.856V249.83H163.194ZM176.784 260L174.21 256.13L171.942 260H168.45L172.5 253.574L168.36 247.364H171.942L174.48 251.18L176.712 247.364H180.204L176.19 253.736L180.366 260H176.784ZM192.045 247.364V260H188.967V254.798H184.179V260H181.101V247.364H184.179V252.314H188.967V247.364H192.045ZM196.535 247.364V260H193.457V247.364H196.535ZM205.606 253.52C206.338 253.676 206.926 254.042 207.37 254.618C207.814 255.182 208.036 255.83 208.036 256.562C208.036 257.618 207.664 258.458 206.92 259.082C206.188 259.694 205.162 260 203.842 260H197.956V247.364H203.644C204.928 247.364 205.93 247.658 206.65 248.246C207.382 248.834 207.748 249.632 207.748 250.64C207.748 251.384 207.55 252.002 207.154 252.494C206.77 252.986 206.254 253.328 205.606 253.52ZM201.034 252.476H203.05C203.554 252.476 203.938 252.368 204.202 252.152C204.478 251.924 204.616 251.594 204.616 251.162C204.616 250.73 204.478 250.4 204.202 250.172C203.938 249.944 203.554 249.83 203.05 249.83H201.034V252.476ZM203.302 257.516C203.818 257.516 204.214 257.402 204.49 257.174C204.778 256.934 204.922 256.592 204.922 256.148C204.922 255.704 204.772 255.356 204.472 255.104C204.184 254.852 203.782 254.726 203.266 254.726H201.034V257.516H203.302ZM212.089 247.364V260H209.011V247.364H212.089ZM222.6 247.364V249.83H219.252V260H216.174V249.83H212.826V247.364H222.6ZM226.413 247.364V260H223.335V247.364H226.413ZM233.809 260.126C232.621 260.126 231.529 259.85 230.533 259.298C229.549 258.746 228.763 257.978 228.175 256.994C227.599 255.998 227.311 254.882 227.311 253.646C227.311 252.41 227.599 251.3 228.175 250.316C228.763 249.332 229.549 248.564 230.533 248.012C231.529 247.46 232.621 247.184 233.809 247.184C234.997 247.184 236.083 247.46 237.067 248.012C238.063 248.564 238.843 249.332 239.407 250.316C239.983 251.3 240.271 252.41 240.271 253.646C240.271 254.882 239.983 255.998 239.407 256.994C238.831 257.978 238.051 258.746 237.067 259.298C236.083 259.85 234.997 260.126 233.809 260.126ZM233.809 257.318C234.817 257.318 235.621 256.982 236.221 256.31C236.833 255.638 237.139 254.75 237.139 253.646C237.139 252.53 236.833 251.642 236.221 250.982C235.621 250.31 234.817 249.974 233.809 249.974C232.789 249.974 231.973 250.304 231.361 250.964C230.761 251.624 230.461 252.518 230.461 253.646C230.461 254.762 230.761 255.656 231.361 256.328C231.973 256.988 232.789 257.318 233.809 257.318ZM252.478 260H249.4L244.252 252.206V260H241.174V247.364H244.252L249.4 255.194V247.364H252.478V260Z" fill="#080808"/>
<path d="M171.73 177.662V191H168.481V185.509H163.427V191H160.178V177.662H163.427V182.887H168.481V177.662H171.73ZM176.469 177.662V191H173.22V177.662H176.469ZM193.074 177.662V191H189.825V183.001L186.842 191H184.22L181.218 182.982V191H177.969V177.662H181.807L185.55 186.896L189.255 177.662H193.074ZM202.858 188.644H197.88L197.082 191H193.681L198.507 177.662H202.269L207.095 191H203.656L202.858 188.644ZM202.022 186.136L200.369 181.253L198.735 186.136H202.022ZM210.958 188.492H215.214V191H207.709V177.662H210.958V188.492ZM224.212 188.644H219.234L218.436 191H215.035L219.861 177.662H223.623L228.449 191H225.01L224.212 188.644ZM223.376 186.136L221.723 181.253L220.089 186.136H223.376ZM240.501 177.662L235.884 186.592V191H232.635V186.592L228.018 177.662H231.704L234.288 183.248L236.853 177.662H240.501ZM249.258 188.644H244.28L243.482 191H240.081L244.907 177.662H248.669L253.495 191H250.056L249.258 188.644ZM248.422 186.136L246.769 181.253L245.135 186.136H248.422Z" fill="black"/>
</g>
<defs>
<filter id="filter0_d_57_54" x="54.5" y="135.828" width="296.222" height="186.862" filterUnits="userSpaceOnUse" color-interpolation-filters="sRGB">
<feFlood flood-opacity="0" result="BackgroundImageFix"/>
<feColorMatrix in="SourceAlpha" type="matrix" values="0 0 0 0 0 0 0 0 0 0 0 0 0 0 0 0 0 0 127 0" result="hardAlpha"/>
<feOffset dx="7" dy="14"/>
<feGaussianBlur stdDeviation="3.5"/>
<feComposite in2="hardAlpha" operator="out"/>
<feColorMatrix type="matrix" values="0 0 0 0 0 0 0 0 0 0 0 0 0 0 0 0 0 0 0.25 0"/>
<feBlend mode="normal" in2="BackgroundImageFix" result="effect1_dropShadow_57_54"/>
<feBlend mode="normal" in="SourceGraphic" in2="effect1_dropShadow_57_54" result="shape"/>
</filter>
<linearGradient id="paint0_linear_57_54" x1="189" y1="20" x2="189" y2="418" gradientUnits="userSpaceOnUse">
<stop stop-color="#294256"/>
<stop offset="1" stop-color="#4A759F"/>
</linearGradient>
</defs>
</svg>
